<svg xmlns="http://www.w3.org/2000/svg" version="1.1" xmlns:xlink="http://www.w3.org/1999/xlink" xmlns:svgjs="http://svgjs.com/svgjs" width="1440" height="560" preserveAspectRatio="none" viewBox="0 0 1440 560"><g mask="url(&quot;#SvgjsMask1000&quot;)" fill="none"><rect width="1440" height="560" x="0" y="0" fill="#0e2a47"></rect><path d="M-84.73 391.65L-84.73 391.65" stroke="#132e65" stroke-width="1.5"></path><path d="M-84.73 391.65L-75.94 516.59" stroke="#132e65" stroke-width="1.5"></path><path d="M-84.73 391.65L72.73 356.31" stroke="#132e65" stroke-width="1.5"></path><path d="M-84.73 391.65L190.77 372.52" stroke="#132e65" stroke-width="1.5"></path><path d="M-75.94 516.59L-75.94 516.59" stroke="#132e65" stroke-width="1.5"></path><path d="M-75.94 516.59L-83.75 672.1" stroke="#132e65" stroke-width="1.5"></path><path d="M-75.94 516.59L66.2 670.81" stroke="#132e65" stroke-width="1.5"></path><path d="M-75.94 516.59L72.73 356.31" stroke="#132e65" stroke-width="1.5"></path><path d="M-75.94 516.59L190.77 372.52" stroke="#132e65" stroke-width="1.5"></path><path d="M-83.75 672.1L-83.75 672.1" stroke="#132e65" stroke-width="1.5"></path><path d="M-83.75 672.1L66.2 670.81" stroke="#132e65" stroke-width="1.5"></path><path d="M-83.75 672.1L-84.73 391.65" stroke="#132e65" stroke-width="1.5"></path><path d="M-83.75 672.1L242.73 641.52" stroke="#132e65" stroke-width="1.5"></path><path d="M-83.75 672.1L72.73 356.31" stroke="#132e65" stroke-width="1.5"></path><path d="M-83.75 672.1L253.38 551.91" stroke="#132e65" stroke-width="1.5"></path><path d="M72.73 356.31L72.73 356.31" stroke="#132e65" stroke-width="1.5"></path><path d="M72.73 356.31L190.77 372.52" stroke="#132e65" stroke-width="1.5"></path><path d="M72.73 356.31L253.38 551.91" stroke="#132e65" stroke-width="1.5"></path><path d="M66.2 670.81L66.2 670.81" stroke="#132e65" stroke-width="1.5"></path><path d="M66.2 670.81L242.73 641.52" stroke="#132e65" stroke-width="1.5"></path><path d="M66.2 670.81L253.38 551.91" stroke="#132e65" stroke-width="1.5"></path><path d="M190.77 372.52L190.77 372.52" stroke="#132e65" stroke-width="1.5"></path><path d="M190.77 372.52L357.12 403.52" stroke="#132e65" stroke-width="1.5"></path><path d="M253.38 551.91L253.38 551.91" stroke="#132e65" stroke-width="1.5"></path><path d="M253.38 551.91L242.73 641.52" stroke="#132e65" stroke-width="1.5"></path><path d="M253.38 551.91L358.67 549.01" stroke="#132e65" stroke-width="1.5"></path><path d="M253.38 551.91L380.9 648.22" stroke="#132e65" stroke-width="1.5"></path><path d="M242.73 641.52L242.73 641.52" stroke="#132e65" stroke-width="1.5"></path><path d="M242.73 641.52L380.9 648.22" stroke="#132e65" stroke-width="1.5"></path><path d="M242.73 641.52L358.67 549.01" stroke="#132e65" stroke-width="1.5"></path><path d="M242.73 641.52L357.12 403.52" stroke="#132e65" stroke-width="1.5"></path><path d="M357.12 403.52L357.12 403.52" stroke="#132e65" stroke-width="1.5"></path><path d="M357.12 403.52L358.67 549.01" stroke="#132e65" stroke-width="1.5"></path><path d="M357.12 403.52L533.08 383.77" stroke="#132e65" stroke-width="1.5"></path><path d="M357.12 403.52L253.38 551.91" stroke="#132e65" stroke-width="1.5"></path><path d="M357.12 403.52L528.27 492.11" stroke="#132e65" stroke-width="1.5"></path><path d="M358.67 549.01L358.67 549.01" stroke="#132e65" stroke-width="1.5"></path><path d="M358.67 549.01L380.9 648.22" stroke="#132e65" stroke-width="1.5"></path><path d="M380.9 648.22L380.9 648.22" stroke="#132e65" stroke-width="1.5"></path><path d="M380.9 648.22L514.95 702.58" stroke="#132e65" stroke-width="1.5"></path><path d="M380.9 648.22L528.27 492.11" stroke="#132e65" stroke-width="1.5"></path><path d="M533.08 383.77L533.08 383.77" stroke="#132e65" stroke-width="1.5"></path><path d="M533.08 383.77L528.27 492.11" stroke="#132e65" stroke-width="1.5"></path><path d="M533.08 383.77L660.44 367.92" stroke="#132e65" stroke-width="1.5"></path><path d="M533.08 383.77L649.89 241.58" stroke="#132e65" stroke-width="1.5"></path><path d="M533.08 383.77L358.67 549.01" stroke="#132e65" stroke-width="1.5"></path><path d="M533.08 383.77L380.9 648.22" stroke="#132e65" stroke-width="1.5"></path><path d="M528.27 492.11L528.27 492.11" stroke="#132e65" stroke-width="1.5"></path><path d="M528.27 492.11L358.67 549.01" stroke="#132e65" stroke-width="1.5"></path><path d="M528.27 492.11L660.44 367.92" stroke="#132e65" stroke-width="1.5"></path><path d="M528.27 492.11L514.95 702.58" stroke="#132e65" stroke-width="1.5"></path><path d="M514.95 702.58L514.95 702.58" stroke="#132e65" stroke-width="1.5"></path><path d="M514.95 702.58L685.82 699.54" stroke="#132e65" stroke-width="1.5"></path><path d="M514.95 702.58L358.67 549.01" stroke="#132e65" stroke-width="1.5"></path><path d="M514.95 702.58L242.73 641.52" stroke="#132e65" stroke-width="1.5"></path><path d="M649.89 241.58L649.89 241.58" stroke="#132e65" stroke-width="1.5"></path><path d="M649.89 241.58L660.44 367.92" stroke="#132e65" stroke-width="1.5"></path><path d="M649.89 241.58L839.38 247.2" stroke="#132e65" stroke-width="1.5"></path><path d="M649.89 241.58L849.23 381.72" stroke="#132e65" stroke-width="1.5"></path><path d="M649.89 241.58L528.27 492.11" stroke="#132e65" stroke-width="1.5"></path><path d="M649.89 241.58L952.99 257.77" stroke="#132e65" stroke-width="1.5"></path><path d="M660.44 367.92L660.44 367.92" stroke="#132e65" stroke-width="1.5"></path><path d="M685.82 699.54L685.82 699.54" stroke="#132e65" stroke-width="1.5"></path><path d="M685.82 699.54L789.07 648.07" stroke="#132e65" stroke-width="1.5"></path><path d="M839.38 247.2L839.38 247.2" stroke="#132e65" stroke-width="1.5"></path><path d="M839.38 247.2L952.99 257.77" stroke="#132e65" stroke-width="1.5"></path><path d="M839.38 247.2L849.23 381.72" stroke="#132e65" stroke-width="1.5"></path><path d="M849.23 381.72L849.23 381.72" stroke="#132e65" stroke-width="1.5"></path><path d="M849.23 381.72L968.71 347.59" stroke="#132e65" stroke-width="1.5"></path><path d="M823.27 553.61L823.27 553.61" stroke="#132e65" stroke-width="1.5"></path><path d="M823.27 553.61L789.07 648.07" stroke="#132e65" stroke-width="1.5"></path><path d="M823.27 553.61L849.23 381.72" stroke="#132e65" stroke-width="1.5"></path><path d="M789.07 648.07L789.07 648.07" stroke="#132e65" stroke-width="1.5"></path><path d="M975.66 -37.76L975.66 -37.76" stroke="#132e65" stroke-width="1.5"></path><path d="M975.66 -37.76L1010.15 104.93" stroke="#132e65" stroke-width="1.5"></path><path d="M975.66 -37.76L1108.43 40.14" stroke="#132e65" stroke-width="1.5"></path><path d="M975.66 -37.76L1247.58 66.81" stroke="#132e65" stroke-width="1.5"></path><path d="M975.66 -37.76L952.99 257.77" stroke="#132e65" stroke-width="1.5"></path><path d="M975.66 -37.76L1122.82 232.03" stroke="#132e65" stroke-width="1.5"></path><path d="M975.66 -37.76L1282.47 -110.15" stroke="#132e65" stroke-width="1.5"></path><path d="M1010.15 104.93L1010.15 104.93" stroke="#132e65" stroke-width="1.5"></path><path d="M1010.15 104.93L1108.43 40.14" stroke="#132e65" stroke-width="1.5"></path><path d="M1010.15 104.93L952.99 257.77" stroke="#132e65" stroke-width="1.5"></path><path d="M1010.15 104.93L1122.82 232.03" stroke="#132e65" stroke-width="1.5"></path><path d="M1010.15 104.93L839.38 247.2" stroke="#132e65" stroke-width="1.5"></path><path d="M1010.15 104.93L1247.58 66.81" stroke="#132e65" stroke-width="1.5"></path><path d="M952.99 257.77L952.99 257.77" stroke="#132e65" stroke-width="1.5"></path><path d="M952.99 257.77L968.71 347.59" stroke="#132e65" stroke-width="1.5"></path><path d="M952.99 257.77L849.23 381.72" stroke="#132e65" stroke-width="1.5"></path><path d="M952.99 257.77L1122.82 232.03" stroke="#132e65" stroke-width="1.5"></path><path d="M952.99 257.77L1126.09 378.55" stroke="#132e65" stroke-width="1.5"></path><path d="M968.71 347.59L968.71 347.59" stroke="#132e65" stroke-width="1.5"></path><path d="M968.71 347.59L1126.09 378.55" stroke="#132e65" stroke-width="1.5"></path><path d="M968.71 347.59L1004.52 504.87" stroke="#132e65" stroke-width="1.5"></path><path d="M968.71 347.59L839.38 247.2" stroke="#132e65" stroke-width="1.5"></path><path d="M1004.52 504.87L1004.52 504.87" stroke="#132e65" stroke-width="1.5"></path><path d="M1004.52 504.87L1097.1 543.37" stroke="#132e65" stroke-width="1.5"></path><path d="M1004.52 504.87L974.26 657.15" stroke="#132e65" stroke-width="1.5"></path><path d="M1004.52 504.87L1126.09 378.55" stroke="#132e65" stroke-width="1.5"></path><path d="M1004.52 504.87L823.27 553.61" stroke="#132e65" stroke-width="1.5"></path><path d="M974.26 657.15L974.26 657.15" stroke="#132e65" stroke-width="1.5"></path><path d="M974.26 657.15L1097.1 543.37" stroke="#132e65" stroke-width="1.5"></path><path d="M1108.43 40.14L1108.43 40.14" stroke="#132e65" stroke-width="1.5"></path><path d="M1108.43 40.14L1247.58 66.81" stroke="#132e65" stroke-width="1.5"></path><path d="M1108.43 40.14L1122.82 232.03" stroke="#132e65" stroke-width="1.5"></path><path d="M1108.43 40.14L1238.86 224.51" stroke="#132e65" stroke-width="1.5"></path><path d="M1122.82 232.03L1122.82 232.03" stroke="#132e65" stroke-width="1.5"></path><path d="M1122.82 232.03L1238.86 224.51" stroke="#132e65" stroke-width="1.5"></path><path d="M1122.82 232.03L1126.09 378.55" stroke="#132e65" stroke-width="1.5"></path><path d="M1126.09 378.55L1126.09 378.55" stroke="#132e65" stroke-width="1.5"></path><path d="M1126.09 378.55L1263.33 343.74" stroke="#132e65" stroke-width="1.5"></path><path d="M1126.09 378.55L1097.1 543.37" stroke="#132e65" stroke-width="1.5"></path><path d="M1097.1 543.37L1097.1 543.37" stroke="#132e65" stroke-width="1.5"></path><path d="M1097.1 543.37L1141.79 641.96" stroke="#132e65" stroke-width="1.5"></path><path d="M1141.79 641.96L1141.79 641.96" stroke="#132e65" stroke-width="1.5"></path><path d="M1141.79 641.96L1254.15 538.68" stroke="#132e65" stroke-width="1.5"></path><path d="M1282.47 -110.15L1282.47 -110.15" stroke="#132e65" stroke-width="1.5"></path><path d="M1282.47 -110.15L1436.32 -37.62" stroke="#132e65" stroke-width="1.5"></path><path d="M1282.47 -110.15L1247.58 66.81" stroke="#132e65" stroke-width="1.5"></path><path d="M1282.47 -110.15L1108.43 40.14" stroke="#132e65" stroke-width="1.5"></path><path d="M1282.47 -110.15L1455.59 62.92" stroke="#132e65" stroke-width="1.5"></path><path d="M1247.58 66.81L1247.58 66.81" stroke="#132e65" stroke-width="1.5"></path><path d="M1247.58 66.81L1238.86 224.51" stroke="#132e65" stroke-width="1.5"></path><path d="M1238.86 224.51L1238.86 224.51" stroke="#132e65" stroke-width="1.5"></path><path d="M1238.86 224.51L1263.33 343.74" stroke="#132e65" stroke-width="1.5"></path><path d="M1263.33 343.74L1263.33 343.74" stroke="#132e65" stroke-width="1.5"></path><path d="M1263.33 343.74L1429.5 347.63" stroke="#132e65" stroke-width="1.5"></path><path d="M1254.15 538.68L1254.15 538.68" stroke="#132e65" stroke-width="1.5"></path><path d="M1254.15 538.68L1292.44 685.66" stroke="#132e65" stroke-width="1.5"></path><path d="M1292.44 685.66L1292.44 685.66" stroke="#132e65" stroke-width="1.5"></path><path d="M1292.44 685.66L1141.79 641.96" stroke="#132e65" stroke-width="1.5"></path><path d="M1292.44 685.66L1453.67 658.15" stroke="#132e65" stroke-width="1.5"></path><path d="M1436.32 -37.62L1436.32 -37.62" stroke="#132e65" stroke-width="1.5"></path><path d="M1436.32 -37.62L1455.59 62.92" stroke="#132e65" stroke-width="1.5"></path><path d="M1436.32 -37.62L1556.81 -53.12" stroke="#132e65" stroke-width="1.5"></path><path d="M1436.32 -37.62L1546.15 38.89" stroke="#132e65" stroke-width="1.5"></path><path d="M1455.59 62.92L1455.59 62.92" stroke="#132e65" stroke-width="1.5"></path><path d="M1455.59 62.92L1546.15 38.89" stroke="#132e65" stroke-width="1.5"></path><path d="M1455.59 62.92L1408.54 204.1" stroke="#132e65" stroke-width="1.5"></path><path d="M1455.59 62.92L1556.81 -53.12" stroke="#132e65" stroke-width="1.5"></path><path d="M1455.59 62.92L1563.67 196.23" stroke="#132e65" stroke-width="1.5"></path><path d="M1408.54 204.1L1408.54 204.1" stroke="#132e65" stroke-width="1.5"></path><path d="M1408.54 204.1L1429.5 347.63" stroke="#132e65" stroke-width="1.5"></path><path d="M1429.5 347.63L1429.5 347.63" stroke="#132e65" stroke-width="1.5"></path><path d="M1429.5 347.63L1607.06 397.5" stroke="#132e65" stroke-width="1.5"></path><path d="M1453.67 658.15L1453.67 658.15" stroke="#132e65" stroke-width="1.5"></path><path d="M1453.67 658.15L1540.57 704.22" stroke="#132e65" stroke-width="1.5"></path><path d="M1453.67 658.15L1545.78 538.75" stroke="#132e65" stroke-width="1.5"></path><path d="M1556.81 -53.12L1556.81 -53.12" stroke="#132e65" stroke-width="1.5"></path><path d="M1556.81 -53.12L1546.15 38.89" stroke="#132e65" stroke-width="1.5"></path><path d="M1556.81 -53.12L1563.67 196.23" stroke="#132e65" stroke-width="1.5"></path><path d="M1556.81 -53.12L1282.47 -110.15" stroke="#132e65" stroke-width="1.5"></path><path d="M1546.15 38.89L1546.15 38.89" stroke="#132e65" stroke-width="1.5"></path><path d="M1563.67 196.23L1563.67 196.23" stroke="#132e65" stroke-width="1.5"></path><path d="M1563.67 196.23L1408.54 204.1" stroke="#132e65" stroke-width="1.5"></path><path d="M1563.67 196.23L1546.15 38.89" stroke="#132e65" stroke-width="1.5"></path><path d="M1607.06 397.5L1607.06 397.5" stroke="#132e65" stroke-width="1.5"></path><path d="M1607.06 397.5L1545.78 538.75" stroke="#132e65" stroke-width="1.5"></path><path d="M1545.78 538.75L1545.78 538.75" stroke="#132e65" stroke-width="1.5"></path><path d="M1545.78 538.75L1540.57 704.22" stroke="#132e65" stroke-width="1.5"></path><path d="M1545.78 538.75L1429.5 347.63" stroke="#132e65" stroke-width="1.5"></path><path d="M1545.78 538.75L1254.15 538.68" stroke="#132e65" stroke-width="1.5"></path><path d="M1545.78 538.75L1292.44 685.66" stroke="#132e65" stroke-width="1.5"></path><path d="M1540.57 704.22L1540.57 704.22" stroke="#132e65" stroke-width="1.5"></path><path d="M1540.57 704.22L1292.44 685.66" stroke="#132e65" stroke-width="1.5"></path><path d="M1540.57 704.22L1607.06 397.5" stroke="#132e65" stroke-width="1.5"></path><path d="M1540.57 704.22L1254.15 538.68" stroke="#132e65" stroke-width="1.5"></path><path d="M1540.57 704.22L1429.5 347.63" stroke="#132e65" stroke-width="1.5"></path><circle r="5" cx="-84.73" cy="391.65" fill="#132e65"></circle><circle r="5" cx="-75.94" cy="516.59" fill="#132e65"></circle><circle r="5" cx="-83.75" cy="672.1" fill="#132e65"></circle><circle r="5" cx="72.73" cy="356.31" fill="#132e65"></circle><circle r="5" cx="66.2" cy="670.81" fill="#132e65"></circle><circle r="5" cx="190.77" cy="372.52" fill="#132e65"></circle><circle r="5" cx="253.38" cy="551.91" fill="#132e65"></circle><circle r="5" cx="242.73" cy="641.52" fill="#132e65"></circle><circle r="5" cx="357.12" cy="403.52" fill="#132e65"></circle><circle r="5" cx="358.67" cy="549.01" fill="#132e65"></circle><circle r="5" cx="380.9" cy="648.22" fill="#132e65"></circle><circle r="5" cx="533.08" cy="383.77" fill="#132e65"></circle><circle r="5" cx="528.27" cy="492.11" fill="#132e65"></circle><circle r="5" cx="514.95" cy="702.58" fill="#132e65"></circle><circle r="5" cx="649.89" cy="241.58" fill="#132e65"></circle><circle r="5" cx="660.44" cy="367.92" fill="#132e65"></circle><circle r="5" cx="685.82" cy="699.54" fill="#132e65"></circle><circle r="5" cx="839.38" cy="247.2" fill="#132e65"></circle><circle r="5" cx="849.23" cy="381.72" fill="#132e65"></circle><circle r="5" cx="823.27" cy="553.61" fill="#132e65"></circle><circle r="5" cx="789.07" cy="648.07" fill="#132e65"></circle><circle r="5" cx="975.66" cy="-37.76" fill="#132e65"></circle><circle r="5" cx="1010.15" cy="104.93" fill="#132e65"></circle><circle r="5" cx="952.99" cy="257.77" fill="#132e65"></circle><circle r="5" cx="968.71" cy="347.59" fill="#132e65"></circle><circle r="5" cx="1004.52" cy="504.87" fill="#132e65"></circle><circle r="5" cx="974.26" cy="657.15" fill="#132e65"></circle><circle r="5" cx="1108.43" cy="40.14" fill="#132e65"></circle><circle r="5" cx="1122.82" cy="232.03" fill="#132e65"></circle><circle r="5" cx="1126.09" cy="378.55" fill="#132e65"></circle><circle r="5" cx="1097.1" cy="543.37" fill="#132e65"></circle><circle r="5" cx="1141.79" cy="641.96" fill="#132e65"></circle><circle r="5" cx="1282.47" cy="-110.15" fill="#132e65"></circle><circle r="5" cx="1247.58" cy="66.81" fill="#132e65"></circle><circle r="5" cx="1238.86" cy="224.51" fill="#132e65"></circle><circle r="5" cx="1263.33" cy="343.74" fill="#132e65"></circle><circle r="5" cx="1254.15" cy="538.68" fill="#132e65"></circle><circle r="5" cx="1292.44" cy="685.66" fill="#132e65"></circle><circle r="5" cx="1436.32" cy="-37.62" fill="#132e65"></circle><circle r="5" cx="1455.59" cy="62.92" fill="#132e65"></circle><circle r="5" cx="1408.54" cy="204.1" fill="#132e65"></circle><circle r="5" cx="1429.5" cy="347.63" fill="#132e65"></circle><circle r="5" cx="1453.67" cy="658.15" fill="#132e65"></circle><circle r="5" cx="1556.81" cy="-53.12" fill="#132e65"></circle><circle r="5" cx="1546.15" cy="38.89" fill="#132e65"></circle><circle r="5" cx="1563.67" cy="196.23" fill="#132e65"></circle><circle r="5" cx="1607.06" cy="397.5" fill="#132e65"></circle><circle r="5" cx="1545.78" cy="538.75" fill="#132e65"></circle><circle r="5" cx="1540.57" cy="704.22" fill="#132e65"></circle><path d="M-94.19 504.16L-94.19 504.16" stroke="hsl(228.5, 77.2%, 51.5%)" stroke-width="1.5"></path><path d="M-94.19 504.16L62.1 489.78" stroke="hsl(228.5, 77.2%, 51.5%)" stroke-width="1.5"></path><path d="M62.1 489.78L62.1 489.78" stroke="hsl(228.5, 77.2%, 51.5%)" stroke-width="1.5"></path><path d="M62.1 489.78L236.45 504.63" stroke="hsl(228.5, 77.2%, 51.5%)" stroke-width="1.5"></path><path d="M62.1 489.78L103.46 672.15" stroke="hsl(228.5, 77.2%, 51.5%)" stroke-width="1.5"></path><path d="M103.46 672.15L103.46 672.15" stroke="hsl(228.5, 77.2%, 51.5%)" stroke-width="1.5"></path><path d="M103.46 672.15L233.48 649.08" stroke="hsl(228.5, 77.2%, 51.5%)" stroke-width="1.5"></path><path d="M103.46 672.15L-102.25 667.49" stroke="hsl(228.5, 77.2%, 51.5%)" stroke-width="1.5"></path><path d="M1308.74 233.58L1308.74 233.58" stroke="hsl(228.5, 77.2%, 51.5%)" stroke-width="1.5"></path><path d="M1308.74 233.58L1277.89 345.97" stroke="hsl(228.5, 77.2%, 51.5%)" stroke-width="1.5"></path><path d="M1308.74 233.58L1433.88 215.24" stroke="hsl(228.5, 77.2%, 51.5%)" stroke-width="1.5"></path><path d="M1308.74 233.58L1296.26 63.74" stroke="hsl(228.5, 77.2%, 51.5%)" stroke-width="1.5"></path><path d="M1308.74 233.58L1410.68 408.21" stroke="hsl(228.5, 77.2%, 51.5%)" stroke-width="1.5"></path><path d="M1606.63 640.44L1606.63 640.44" stroke="hsl(228.5, 77.2%, 51.5%)" stroke-width="1.5"></path><path d="M1606.63 640.44L1584.16 491.03" stroke="hsl(228.5, 77.2%, 51.5%)" stroke-width="1.5"></path><path d="M1606.63 640.44L1447.53 642.11" stroke="hsl(228.5, 77.2%, 51.5%)" stroke-width="1.5"></path><path d="M1606.63 640.44L1448.34 504.14" stroke="hsl(228.5, 77.2%, 51.5%)" stroke-width="1.5"></path><path d="M1606.63 640.44L1410.68 408.21" stroke="hsl(228.5, 77.2%, 51.5%)" stroke-width="1.5"></path><path d="M1606.63 640.44L1550.87 339.49" stroke="hsl(228.5, 77.2%, 51.5%)" stroke-width="1.5"></path><path d="M1606.63 640.44L1272.21 648.09" stroke="hsl(228.5, 77.2%, 51.5%)" stroke-width="1.5"></path><path d="M-102.25 667.49L-102.25 667.49" stroke="hsl(228.5, 77.2%, 51.5%)" stroke-width="1.5"></path><path d="M-102.25 667.49L-94.19 504.16" stroke="hsl(228.5, 77.2%, 51.5%)" stroke-width="1.5"></path><path d="M-102.25 667.49L62.1 489.78" stroke="hsl(228.5, 77.2%, 51.5%)" stroke-width="1.5"></path><path d="M-102.25 667.49L233.48 649.08" stroke="hsl(228.5, 77.2%, 51.5%)" stroke-width="1.5"></path><path d="M-102.25 667.49L236.45 504.63" stroke="hsl(228.5, 77.2%, 51.5%)" stroke-width="1.5"></path><path d="M236.45 504.63L236.45 504.63" stroke="hsl(228.5, 77.2%, 51.5%)" stroke-width="1.5"></path><path d="M236.45 504.63L233.48 649.08" stroke="hsl(228.5, 77.2%, 51.5%)" stroke-width="1.5"></path><path d="M236.45 504.63L399.24 492.18" stroke="hsl(228.5, 77.2%, 51.5%)" stroke-width="1.5"></path><path d="M236.45 504.63L103.46 672.15" stroke="hsl(228.5, 77.2%, 51.5%)" stroke-width="1.5"></path><path d="M233.48 649.08L233.48 649.08" stroke="hsl(228.5, 77.2%, 51.5%)" stroke-width="1.5"></path><path d="M233.48 649.08L402.82 692.2" stroke="hsl(228.5, 77.2%, 51.5%)" stroke-width="1.5"></path><path d="M233.48 649.08L399.24 492.18" stroke="hsl(228.5, 77.2%, 51.5%)" stroke-width="1.5"></path><path d="M233.48 649.08L62.1 489.78" stroke="hsl(228.5, 77.2%, 51.5%)" stroke-width="1.5"></path><path d="M233.48 649.08L497.6 685.71" stroke="hsl(228.5, 77.2%, 51.5%)" stroke-width="1.5"></path><path d="M399.24 492.18L399.24 492.18" stroke="hsl(228.5, 77.2%, 51.5%)" stroke-width="1.5"></path><path d="M399.24 492.18L491.28 519.59" stroke="hsl(228.5, 77.2%, 51.5%)" stroke-width="1.5"></path><path d="M402.82 692.2L402.82 692.2" stroke="hsl(228.5, 77.2%, 51.5%)" stroke-width="1.5"></path><path d="M402.82 692.2L497.6 685.71" stroke="hsl(228.5, 77.2%, 51.5%)" stroke-width="1.5"></path><path d="M402.82 692.2L491.28 519.59" stroke="hsl(228.5, 77.2%, 51.5%)" stroke-width="1.5"></path><path d="M491.28 519.59L491.28 519.59" stroke="hsl(228.5, 77.2%, 51.5%)" stroke-width="1.5"></path><path d="M491.28 519.59L497.6 685.71" stroke="hsl(228.5, 77.2%, 51.5%)" stroke-width="1.5"></path><path d="M491.28 519.59L672.88 553.42" stroke="hsl(228.5, 77.2%, 51.5%)" stroke-width="1.5"></path><path d="M497.6 685.71L497.6 685.71" stroke="hsl(228.5, 77.2%, 51.5%)" stroke-width="1.5"></path><path d="M497.6 685.71L698.08 701.08" stroke="hsl(228.5, 77.2%, 51.5%)" stroke-width="1.5"></path><path d="M662.86 366.57L662.86 366.57" stroke="hsl(228.5, 77.2%, 51.5%)" stroke-width="1.5"></path><path d="M662.86 366.57L834.11 343.56" stroke="hsl(228.5, 77.2%, 51.5%)" stroke-width="1.5"></path><path d="M662.86 366.57L672.88 553.42" stroke="hsl(228.5, 77.2%, 51.5%)" stroke-width="1.5"></path><path d="M662.86 366.57L491.28 519.59" stroke="hsl(228.5, 77.2%, 51.5%)" stroke-width="1.5"></path><path d="M672.88 553.42L672.88 553.42" stroke="hsl(228.5, 77.2%, 51.5%)" stroke-width="1.5"></path><path d="M672.88 553.42L698.08 701.08" stroke="hsl(228.5, 77.2%, 51.5%)" stroke-width="1.5"></path><path d="M672.88 553.42L854.23 527.59" stroke="hsl(228.5, 77.2%, 51.5%)" stroke-width="1.5"></path><path d="M672.88 553.42L497.6 685.71" stroke="hsl(228.5, 77.2%, 51.5%)" stroke-width="1.5"></path><path d="M672.88 553.42L847.22 697.43" stroke="hsl(228.5, 77.2%, 51.5%)" stroke-width="1.5"></path><path d="M698.08 701.08L698.08 701.08" stroke="hsl(228.5, 77.2%, 51.5%)" stroke-width="1.5"></path><path d="M698.08 701.08L847.22 697.43" stroke="hsl(228.5, 77.2%, 51.5%)" stroke-width="1.5"></path><path d="M698.08 701.08L854.23 527.59" stroke="hsl(228.5, 77.2%, 51.5%)" stroke-width="1.5"></path><path d="M698.08 701.08L938.23 704.27" stroke="hsl(228.5, 77.2%, 51.5%)" stroke-width="1.5"></path><path d="M834.11 343.56L834.11 343.56" stroke="hsl(228.5, 77.2%, 51.5%)" stroke-width="1.5"></path><path d="M834.11 343.56L961.4 372.79" stroke="hsl(228.5, 77.2%, 51.5%)" stroke-width="1.5"></path><path d="M834.11 343.56L854.23 527.59" stroke="hsl(228.5, 77.2%, 51.5%)" stroke-width="1.5"></path><path d="M834.11 343.56L958.42 513.27" stroke="hsl(228.5, 77.2%, 51.5%)" stroke-width="1.5"></path><path d="M854.23 527.59L854.23 527.59" stroke="hsl(228.5, 77.2%, 51.5%)" stroke-width="1.5"></path><path d="M854.23 527.59L958.42 513.27" stroke="hsl(228.5, 77.2%, 51.5%)" stroke-width="1.5"></path><path d="M854.23 527.59L847.22 697.43" stroke="hsl(228.5, 77.2%, 51.5%)" stroke-width="1.5"></path><path d="M847.22 697.43L847.22 697.43" stroke="hsl(228.5, 77.2%, 51.5%)" stroke-width="1.5"></path><path d="M847.22 697.43L938.23 704.27" stroke="hsl(228.5, 77.2%, 51.5%)" stroke-width="1.5"></path><path d="M961.4 372.79L961.4 372.79" stroke="hsl(228.5, 77.2%, 51.5%)" stroke-width="1.5"></path><path d="M961.4 372.79L958.42 513.27" stroke="hsl(228.5, 77.2%, 51.5%)" stroke-width="1.5"></path><path d="M961.4 372.79L854.23 527.59" stroke="hsl(228.5, 77.2%, 51.5%)" stroke-width="1.5"></path><path d="M961.4 372.79L1149.73 375.69" stroke="hsl(228.5, 77.2%, 51.5%)" stroke-width="1.5"></path><path d="M961.4 372.79L1095.51 219.45" stroke="hsl(228.5, 77.2%, 51.5%)" stroke-width="1.5"></path><path d="M958.42 513.27L958.42 513.27" stroke="hsl(228.5, 77.2%, 51.5%)" stroke-width="1.5"></path><path d="M958.42 513.27L1123.97 547.08" stroke="hsl(228.5, 77.2%, 51.5%)" stroke-width="1.5"></path><path d="M958.42 513.27L938.23 704.27" stroke="hsl(228.5, 77.2%, 51.5%)" stroke-width="1.5"></path><path d="M958.42 513.27L847.22 697.43" stroke="hsl(228.5, 77.2%, 51.5%)" stroke-width="1.5"></path><path d="M938.23 704.27L938.23 704.27" stroke="hsl(228.5, 77.2%, 51.5%)" stroke-width="1.5"></path><path d="M938.23 704.27L854.23 527.59" stroke="hsl(228.5, 77.2%, 51.5%)" stroke-width="1.5"></path><path d="M938.23 704.27L1136.57 653.14" stroke="hsl(228.5, 77.2%, 51.5%)" stroke-width="1.5"></path><path d="M1095.51 219.45L1095.51 219.45" stroke="hsl(228.5, 77.2%, 51.5%)" stroke-width="1.5"></path><path d="M1095.51 219.45L1149.73 375.69" stroke="hsl(228.5, 77.2%, 51.5%)" stroke-width="1.5"></path><path d="M1095.51 219.45L1308.74 233.58" stroke="hsl(228.5, 77.2%, 51.5%)" stroke-width="1.5"></path><path d="M1095.51 219.45L1277.89 345.97" stroke="hsl(228.5, 77.2%, 51.5%)" stroke-width="1.5"></path><path d="M1149.73 375.69L1149.73 375.69" stroke="hsl(228.5, 77.2%, 51.5%)" stroke-width="1.5"></path><path d="M1149.73 375.69L1277.89 345.97" stroke="hsl(228.5, 77.2%, 51.5%)" stroke-width="1.5"></path><path d="M1149.73 375.69L1123.97 547.08" stroke="hsl(228.5, 77.2%, 51.5%)" stroke-width="1.5"></path><path d="M1149.73 375.69L1308.74 233.58" stroke="hsl(228.5, 77.2%, 51.5%)" stroke-width="1.5"></path><path d="M1123.97 547.08L1123.97 547.08" stroke="hsl(228.5, 77.2%, 51.5%)" stroke-width="1.5"></path><path d="M1123.97 547.08L1136.57 653.14" stroke="hsl(228.5, 77.2%, 51.5%)" stroke-width="1.5"></path><path d="M1136.57 653.14L1136.57 653.14" stroke="hsl(228.5, 77.2%, 51.5%)" stroke-width="1.5"></path><path d="M1267.62 -88.76L1267.62 -88.76" stroke="hsl(228.5, 77.2%, 51.5%)" stroke-width="1.5"></path><path d="M1267.62 -88.76L1417.42 -80.18" stroke="hsl(228.5, 77.2%, 51.5%)" stroke-width="1.5"></path><path d="M1296.26 63.74L1296.26 63.74" stroke="hsl(228.5, 77.2%, 51.5%)" stroke-width="1.5"></path><path d="M1296.26 63.74L1422.25 63.83" stroke="hsl(228.5, 77.2%, 51.5%)" stroke-width="1.5"></path><path d="M1296.26 63.74L1267.62 -88.76" stroke="hsl(228.5, 77.2%, 51.5%)" stroke-width="1.5"></path><path d="M1277.89 345.97L1277.89 345.97" stroke="hsl(228.5, 77.2%, 51.5%)" stroke-width="1.5"></path><path d="M1277.89 345.97L1410.68 408.21" stroke="hsl(228.5, 77.2%, 51.5%)" stroke-width="1.5"></path><path d="M1277.89 345.97L1433.88 215.24" stroke="hsl(228.5, 77.2%, 51.5%)" stroke-width="1.5"></path><path d="M1272.21 648.09L1272.21 648.09" stroke="hsl(228.5, 77.2%, 51.5%)" stroke-width="1.5"></path><path d="M1272.21 648.09L1136.57 653.14" stroke="hsl(228.5, 77.2%, 51.5%)" stroke-width="1.5"></path><path d="M1272.21 648.09L1447.53 642.11" stroke="hsl(228.5, 77.2%, 51.5%)" stroke-width="1.5"></path><path d="M1272.21 648.09L1123.97 547.08" stroke="hsl(228.5, 77.2%, 51.5%)" stroke-width="1.5"></path><path d="M1417.42 -80.18L1417.42 -80.18" stroke="hsl(228.5, 77.2%, 51.5%)" stroke-width="1.5"></path><path d="M1417.42 -80.18L1552.99 -92.34" stroke="hsl(228.5, 77.2%, 51.5%)" stroke-width="1.5"></path><path d="M1417.42 -80.18L1422.25 63.83" stroke="hsl(228.5, 77.2%, 51.5%)" stroke-width="1.5"></path><path d="M1417.42 -80.18L1296.26 63.74" stroke="hsl(228.5, 77.2%, 51.5%)" stroke-width="1.5"></path><path d="M1417.42 -80.18L1608.94 99.37" stroke="hsl(228.5, 77.2%, 51.5%)" stroke-width="1.5"></path><path d="M1417.42 -80.18L1433.88 215.24" stroke="hsl(228.5, 77.2%, 51.5%)" stroke-width="1.5"></path><path d="M1422.25 63.83L1422.25 63.83" stroke="hsl(228.5, 77.2%, 51.5%)" stroke-width="1.5"></path><path d="M1422.25 63.83L1433.88 215.24" stroke="hsl(228.5, 77.2%, 51.5%)" stroke-width="1.5"></path><path d="M1422.25 63.83L1608.94 99.37" stroke="hsl(228.5, 77.2%, 51.5%)" stroke-width="1.5"></path><path d="M1433.88 215.24L1433.88 215.24" stroke="hsl(228.5, 77.2%, 51.5%)" stroke-width="1.5"></path><path d="M1433.88 215.24L1586.08 227.23" stroke="hsl(228.5, 77.2%, 51.5%)" stroke-width="1.5"></path><path d="M1433.88 215.24L1550.87 339.49" stroke="hsl(228.5, 77.2%, 51.5%)" stroke-width="1.5"></path><path d="M1433.88 215.24L1410.68 408.21" stroke="hsl(228.5, 77.2%, 51.5%)" stroke-width="1.5"></path><path d="M1410.68 408.21L1410.68 408.21" stroke="hsl(228.5, 77.2%, 51.5%)" stroke-width="1.5"></path><path d="M1410.68 408.21L1448.34 504.14" stroke="hsl(228.5, 77.2%, 51.5%)" stroke-width="1.5"></path><path d="M1410.68 408.21L1550.87 339.49" stroke="hsl(228.5, 77.2%, 51.5%)" stroke-width="1.5"></path><path d="M1410.68 408.21L1584.16 491.03" stroke="hsl(228.5, 77.2%, 51.5%)" stroke-width="1.5"></path><path d="M1448.34 504.14L1448.34 504.14" stroke="hsl(228.5, 77.2%, 51.5%)" stroke-width="1.5"></path><path d="M1448.34 504.14L1584.16 491.03" stroke="hsl(228.5, 77.2%, 51.5%)" stroke-width="1.5"></path><path d="M1448.34 504.14L1447.53 642.11" stroke="hsl(228.5, 77.2%, 51.5%)" stroke-width="1.5"></path><path d="M1448.34 504.14L1550.87 339.49" stroke="hsl(228.5, 77.2%, 51.5%)" stroke-width="1.5"></path><path d="M1447.53 642.11L1447.53 642.11" stroke="hsl(228.5, 77.2%, 51.5%)" stroke-width="1.5"></path><path d="M1447.53 642.11L1584.16 491.03" stroke="hsl(228.5, 77.2%, 51.5%)" stroke-width="1.5"></path><path d="M1447.53 642.11L1410.68 408.21" stroke="hsl(228.5, 77.2%, 51.5%)" stroke-width="1.5"></path><path d="M1552.99 -92.34L1552.99 -92.34" stroke="hsl(228.5, 77.2%, 51.5%)" stroke-width="1.5"></path><path d="M1552.99 -92.34L1608.94 99.37" stroke="hsl(228.5, 77.2%, 51.5%)" stroke-width="1.5"></path><path d="M1552.99 -92.34L1422.25 63.83" stroke="hsl(228.5, 77.2%, 51.5%)" stroke-width="1.5"></path><path d="M1552.99 -92.34L1267.62 -88.76" stroke="hsl(228.5, 77.2%, 51.5%)" stroke-width="1.5"></path><path d="M1608.94 99.37L1608.94 99.37" stroke="hsl(228.5, 77.2%, 51.5%)" stroke-width="1.5"></path><path d="M1608.94 99.37L1586.08 227.23" stroke="hsl(228.5, 77.2%, 51.5%)" stroke-width="1.5"></path><path d="M1608.94 99.37L1433.88 215.24" stroke="hsl(228.5, 77.2%, 51.5%)" stroke-width="1.5"></path><path d="M1608.94 99.37L1550.87 339.49" stroke="hsl(228.5, 77.2%, 51.5%)" stroke-width="1.5"></path><path d="M1586.08 227.23L1586.08 227.23" stroke="hsl(228.5, 77.2%, 51.5%)" stroke-width="1.5"></path><path d="M1586.08 227.23L1550.87 339.49" stroke="hsl(228.5, 77.2%, 51.5%)" stroke-width="1.5"></path><path d="M1586.08 227.23L1422.25 63.83" stroke="hsl(228.5, 77.2%, 51.5%)" stroke-width="1.5"></path><path d="M1550.87 339.49L1550.87 339.49" stroke="hsl(228.5, 77.2%, 51.5%)" stroke-width="1.5"></path><path d="M1550.87 339.49L1584.16 491.03" stroke="hsl(228.5, 77.2%, 51.5%)" stroke-width="1.5"></path><path d="M1584.16 491.03L1584.16 491.03" stroke="hsl(228.5, 77.2%, 51.5%)" stroke-width="1.5"></path><path d="M1584.16 491.03L1586.08 227.23" stroke="hsl(228.5, 77.2%, 51.5%)" stroke-width="1.5"></path><circle r="25" cx="-94.19" cy="504.16" fill="url(#SvgjsRadialGradient1001)"></circle><circle r="25" cx="62.1" cy="489.78" fill="url(#SvgjsRadialGradient1001)"></circle><circle r="25" cx="103.46" cy="672.15" fill="url(#SvgjsRadialGradient1001)"></circle><circle r="25" cx="1308.74" cy="233.58" fill="url(#SvgjsRadialGradient1001)"></circle><circle r="25" cx="1606.63" cy="640.44" fill="url(#SvgjsRadialGradient1001)"></circle><circle r="5" cx="-102.25" cy="667.49" fill="#8b9ad9"></circle><circle r="5" cx="236.45" cy="504.63" fill="#8b9ad9"></circle><circle r="5" cx="233.48" cy="649.08" fill="#8b9ad9"></circle><circle r="5" cx="399.24" cy="492.18" fill="#8b9ad9"></circle><circle r="5" cx="402.82" cy="692.2" fill="#8b9ad9"></circle><circle r="5" cx="491.28" cy="519.59" fill="#8b9ad9"></circle><circle r="5" cx="497.6" cy="685.71" fill="#8b9ad9"></circle><circle r="5" cx="662.86" cy="366.57" fill="#8b9ad9"></circle><circle r="5" cx="672.88" cy="553.42" fill="#8b9ad9"></circle><circle r="5" cx="698.08" cy="701.08" fill="#8b9ad9"></circle><circle r="5" cx="834.11" cy="343.56" fill="#8b9ad9"></circle><circle r="5" cx="854.23" cy="527.59" fill="#8b9ad9"></circle><circle r="5" cx="847.22" cy="697.43" fill="#8b9ad9"></circle><circle r="5" cx="961.4" cy="372.79" fill="#8b9ad9"></circle><circle r="5" cx="958.42" cy="513.27" fill="#8b9ad9"></circle><circle r="5" cx="938.23" cy="704.27" fill="#8b9ad9"></circle><circle r="5" cx="1095.51" cy="219.45" fill="#8b9ad9"></circle><circle r="5" cx="1149.73" cy="375.69" fill="#8b9ad9"></circle><circle r="5" cx="1123.97" cy="547.08" fill="#8b9ad9"></circle><circle r="5" cx="1136.57" cy="653.14" fill="#8b9ad9"></circle><circle r="5" cx="1267.62" cy="-88.76" fill="#8b9ad9"></circle><circle r="5" cx="1296.26" cy="63.74" fill="#8b9ad9"></circle><circle r="5" cx="1277.89" cy="345.97" fill="#8b9ad9"></circle><circle r="5" cx="1272.21" cy="648.09" fill="#8b9ad9"></circle><circle r="5" cx="1417.42" cy="-80.18" fill="#8b9ad9"></circle><circle r="5" cx="1422.25" cy="63.83" fill="#8b9ad9"></circle><circle r="5" cx="1433.88" cy="215.24" fill="#8b9ad9"></circle><circle r="5" cx="1410.68" cy="408.21" fill="#8b9ad9"></circle><circle r="5" cx="1448.34" cy="504.14" fill="#8b9ad9"></circle><circle r="5" cx="1447.53" cy="642.11" fill="#8b9ad9"></circle><circle r="5" cx="1552.99" cy="-92.34" fill="#8b9ad9"></circle><circle r="5" cx="1608.94" cy="99.37" fill="#8b9ad9"></circle><circle r="5" cx="1586.08" cy="227.23" fill="#8b9ad9"></circle><circle r="5" cx="1550.87" cy="339.49" fill="#8b9ad9"></circle><circle r="5" cx="1584.16" cy="491.03" fill="#8b9ad9"></circle></g><defs><mask id="SvgjsMask1000"><rect width="1440" height="560" fill="#ffffff"></rect></mask><radialGradient id="SvgjsRadialGradient1001"><stop stop-color="#ffffff" offset="0.1"></stop><stop stop-color="#1735b3" offset="0.2"></stop><stop stop-color="rgba(23, 53, 179, 0)" offset="1"></stop></radialGradient></defs></svg>