<svg xmlns="http://www.w3.org/2000/svg" version="1.1" xmlns:xlink="http://www.w3.org/1999/xlink" xmlns:svgjs="http://svgjs.com/svgjs" width="1440" height="560" preserveAspectRatio="none" viewBox="0 0 1440 560"><g mask="url(&quot;#SvgjsMask1016&quot;)" fill="none"><rect width="1440" height="560" x="0" y="0" fill="rgba(0, 0, 0, 1)"></rect><path d="M39.3 -57.33L104.25 -19.83L104.25 55.17L39.3 92.67L-25.65 55.17L-25.65 -19.83zM104.25 55.17L169.21 92.67L169.21 167.67L104.25 205.17L39.3 167.67L39.3 92.67zM39.3 167.67L104.25 205.17L104.25 280.17L39.3 317.67L-25.65 280.17L-25.65 205.17zM169.21 -57.33L234.16 -19.83L234.16 55.17L169.21 92.67L104.25 55.17L104.25 -19.83zM169.21 167.67L234.16 205.17L234.16 280.17L169.21 317.67L104.25 280.17L104.25 205.17zM234.16 505.17L299.12 542.67L299.12 617.67L234.16 655.17L169.21 617.67L169.21 542.67zM299.12 -57.33L364.07 -19.83L364.07 55.17L299.12 92.67L234.16 55.17L234.16 -19.83zM364.07 505.17L429.02 542.67L429.02 617.67L364.07 655.17L299.12 617.67L299.12 542.67zM493.98 280.17L558.93 317.67L558.93 392.67L493.98 430.17L429.02 392.67L429.02 317.67zM429.02 392.67L493.98 430.17L493.98 505.17L429.02 542.67L364.07 505.17L364.07 430.17zM558.93 -57.33L623.88 -19.83L623.88 55.17L558.93 92.67L493.98 55.17L493.98 -19.83zM623.88 55.17L688.84 92.67L688.84 167.67L623.88 205.17L558.93 167.67L558.93 92.67zM558.93 167.67L623.88 205.17L623.88 280.17L558.93 317.67L493.98 280.17L493.98 205.17zM688.84 -57.33L753.79 -19.83L753.79 55.17L688.84 92.67L623.88 55.17L623.88 -19.83zM753.79 280.17L818.75 317.67L818.75 392.67L753.79 430.17L688.84 392.67L688.84 317.67zM688.84 392.67L753.79 430.17L753.79 505.17L688.84 542.67L623.88 505.17L623.88 430.17zM818.74 -57.33L883.7 -19.83L883.7 55.17L818.74 92.67L753.79 55.17L753.79 -19.83zM883.7 280.17L948.65 317.67L948.65 392.67L883.7 430.17L818.74 392.67L818.74 317.67zM883.7 505.17L948.65 542.67L948.65 617.67L883.7 655.17L818.74 617.67L818.74 542.67zM1013.61 280.17L1078.56 317.67L1078.56 392.67L1013.61 430.17L948.65 392.67L948.65 317.67zM948.65 392.67L1013.61 430.17L1013.61 505.17L948.65 542.67L883.7 505.17L883.7 430.17zM1013.61 505.17L1078.56 542.67L1078.56 617.67L1013.61 655.17L948.65 617.67L948.65 542.67zM1078.56 167.67L1143.51 205.17L1143.51 280.17L1078.56 317.67L1013.61 280.17L1013.61 205.17zM1078.56 392.67L1143.51 430.17L1143.51 505.17L1078.56 542.67L1013.61 505.17L1013.61 430.17zM1143.51 505.17L1208.47 542.67L1208.47 617.67L1143.51 655.17L1078.56 617.67L1078.56 542.67zM1338.38 -57.33L1403.33 -19.83L1403.33 55.17L1338.38 92.67L1273.42 55.17L1273.42 -19.83zM1403.33 280.17L1468.28 317.67L1468.28 392.67L1403.33 430.17L1338.38 392.67L1338.38 317.67zM1338.38 392.67L1403.33 430.17L1403.33 505.17L1338.38 542.67L1273.42 505.17L1273.42 430.17zM1403.33 505.17L1468.28 542.67L1468.28 617.67L1403.33 655.17L1338.38 617.67L1338.38 542.67zM1468.28 -57.33L1533.24 -19.83L1533.24 55.17L1468.28 92.67L1403.33 55.17L1403.33 -19.83zM1468.28 167.67L1533.24 205.17L1533.24 280.17L1468.28 317.67L1403.33 280.17L1403.33 205.17zM1468.28 392.67L1533.24 430.17L1533.24 505.17L1468.28 542.67L1403.33 505.17L1403.33 430.17z" stroke="rgba(7, 125, 243, 1)" stroke-width="2"></path><path d="M31.8 -57.33 a7.5 7.5 0 1 0 15 0 a7.5 7.5 0 1 0 -15 0zM96.75 -19.83 a7.5 7.5 0 1 0 15 0 a7.5 7.5 0 1 0 -15 0zM96.75 55.17 a7.5 7.5 0 1 0 15 0 a7.5 7.5 0 1 0 -15 0zM31.8 92.67 a7.5 7.5 0 1 0 15 0 a7.5 7.5 0 1 0 -15 0zM-33.15 55.17 a7.5 7.5 0 1 0 15 0 a7.5 7.5 0 1 0 -15 0zM-33.15 -19.83 a7.5 7.5 0 1 0 15 0 a7.5 7.5 0 1 0 -15 0zM161.71 92.67 a7.5 7.5 0 1 0 15 0 a7.5 7.5 0 1 0 -15 0zM161.71 167.67 a7.5 7.5 0 1 0 15 0 a7.5 7.5 0 1 0 -15 0zM96.75 205.17 a7.5 7.5 0 1 0 15 0 a7.5 7.5 0 1 0 -15 0zM31.8 167.67 a7.5 7.5 0 1 0 15 0 a7.5 7.5 0 1 0 -15 0zM96.75 280.17 a7.5 7.5 0 1 0 15 0 a7.5 7.5 0 1 0 -15 0zM31.8 317.67 a7.5 7.5 0 1 0 15 0 a7.5 7.5 0 1 0 -15 0zM-33.15 280.17 a7.5 7.5 0 1 0 15 0 a7.5 7.5 0 1 0 -15 0zM-33.15 205.17 a7.5 7.5 0 1 0 15 0 a7.5 7.5 0 1 0 -15 0zM161.71 -57.33 a7.5 7.5 0 1 0 15 0 a7.5 7.5 0 1 0 -15 0zM226.66 -19.83 a7.5 7.5 0 1 0 15 0 a7.5 7.5 0 1 0 -15 0zM226.66 55.17 a7.5 7.5 0 1 0 15 0 a7.5 7.5 0 1 0 -15 0zM226.66 205.17 a7.5 7.5 0 1 0 15 0 a7.5 7.5 0 1 0 -15 0zM226.66 280.17 a7.5 7.5 0 1 0 15 0 a7.5 7.5 0 1 0 -15 0zM161.71 317.67 a7.5 7.5 0 1 0 15 0 a7.5 7.5 0 1 0 -15 0zM226.66 505.17 a7.5 7.5 0 1 0 15 0 a7.5 7.5 0 1 0 -15 0zM291.62 542.67 a7.5 7.5 0 1 0 15 0 a7.5 7.5 0 1 0 -15 0zM291.62 617.67 a7.5 7.5 0 1 0 15 0 a7.5 7.5 0 1 0 -15 0zM226.66 655.17 a7.5 7.5 0 1 0 15 0 a7.5 7.5 0 1 0 -15 0zM161.71 617.67 a7.5 7.5 0 1 0 15 0 a7.5 7.5 0 1 0 -15 0zM161.71 542.67 a7.5 7.5 0 1 0 15 0 a7.5 7.5 0 1 0 -15 0zM291.62 -57.33 a7.5 7.5 0 1 0 15 0 a7.5 7.5 0 1 0 -15 0zM356.57 -19.83 a7.5 7.5 0 1 0 15 0 a7.5 7.5 0 1 0 -15 0zM356.57 55.17 a7.5 7.5 0 1 0 15 0 a7.5 7.5 0 1 0 -15 0zM291.62 92.67 a7.5 7.5 0 1 0 15 0 a7.5 7.5 0 1 0 -15 0zM356.57 505.17 a7.5 7.5 0 1 0 15 0 a7.5 7.5 0 1 0 -15 0zM421.52 542.67 a7.5 7.5 0 1 0 15 0 a7.5 7.5 0 1 0 -15 0zM421.52 617.67 a7.5 7.5 0 1 0 15 0 a7.5 7.5 0 1 0 -15 0zM356.57 655.17 a7.5 7.5 0 1 0 15 0 a7.5 7.5 0 1 0 -15 0zM486.48 280.17 a7.5 7.5 0 1 0 15 0 a7.5 7.5 0 1 0 -15 0zM551.43 317.67 a7.5 7.5 0 1 0 15 0 a7.5 7.5 0 1 0 -15 0zM551.43 392.67 a7.5 7.5 0 1 0 15 0 a7.5 7.5 0 1 0 -15 0zM486.48 430.17 a7.5 7.5 0 1 0 15 0 a7.5 7.5 0 1 0 -15 0zM421.52 392.67 a7.5 7.5 0 1 0 15 0 a7.5 7.5 0 1 0 -15 0zM421.52 317.67 a7.5 7.5 0 1 0 15 0 a7.5 7.5 0 1 0 -15 0zM486.48 505.17 a7.5 7.5 0 1 0 15 0 a7.5 7.5 0 1 0 -15 0zM356.57 430.17 a7.5 7.5 0 1 0 15 0 a7.5 7.5 0 1 0 -15 0zM551.43 -57.33 a7.5 7.5 0 1 0 15 0 a7.5 7.5 0 1 0 -15 0zM616.38 -19.83 a7.5 7.5 0 1 0 15 0 a7.5 7.5 0 1 0 -15 0zM616.38 55.17 a7.5 7.5 0 1 0 15 0 a7.5 7.5 0 1 0 -15 0zM551.43 92.67 a7.5 7.5 0 1 0 15 0 a7.5 7.5 0 1 0 -15 0zM486.48 55.17 a7.5 7.5 0 1 0 15 0 a7.5 7.5 0 1 0 -15 0zM486.48 -19.83 a7.5 7.5 0 1 0 15 0 a7.5 7.5 0 1 0 -15 0zM681.34 92.67 a7.5 7.5 0 1 0 15 0 a7.5 7.5 0 1 0 -15 0zM681.34 167.67 a7.5 7.5 0 1 0 15 0 a7.5 7.5 0 1 0 -15 0zM616.38 205.17 a7.5 7.5 0 1 0 15 0 a7.5 7.5 0 1 0 -15 0zM551.43 167.67 a7.5 7.5 0 1 0 15 0 a7.5 7.5 0 1 0 -15 0zM616.38 280.17 a7.5 7.5 0 1 0 15 0 a7.5 7.5 0 1 0 -15 0zM486.48 205.17 a7.5 7.5 0 1 0 15 0 a7.5 7.5 0 1 0 -15 0zM681.34 -57.33 a7.5 7.5 0 1 0 15 0 a7.5 7.5 0 1 0 -15 0zM746.29 -19.83 a7.5 7.5 0 1 0 15 0 a7.5 7.5 0 1 0 -15 0zM746.29 55.17 a7.5 7.5 0 1 0 15 0 a7.5 7.5 0 1 0 -15 0zM746.29 280.17 a7.5 7.5 0 1 0 15 0 a7.5 7.5 0 1 0 -15 0zM811.25 317.67 a7.5 7.5 0 1 0 15 0 a7.5 7.5 0 1 0 -15 0zM811.25 392.67 a7.5 7.5 0 1 0 15 0 a7.5 7.5 0 1 0 -15 0zM746.29 430.17 a7.5 7.5 0 1 0 15 0 a7.5 7.5 0 1 0 -15 0zM681.34 392.67 a7.5 7.5 0 1 0 15 0 a7.5 7.5 0 1 0 -15 0zM681.34 317.67 a7.5 7.5 0 1 0 15 0 a7.5 7.5 0 1 0 -15 0zM746.29 505.17 a7.5 7.5 0 1 0 15 0 a7.5 7.5 0 1 0 -15 0zM681.34 542.67 a7.5 7.5 0 1 0 15 0 a7.5 7.5 0 1 0 -15 0zM616.38 505.17 a7.5 7.5 0 1 0 15 0 a7.5 7.5 0 1 0 -15 0zM616.38 430.17 a7.5 7.5 0 1 0 15 0 a7.5 7.5 0 1 0 -15 0zM811.24 -57.33 a7.5 7.5 0 1 0 15 0 a7.5 7.5 0 1 0 -15 0zM876.2 -19.83 a7.5 7.5 0 1 0 15 0 a7.5 7.5 0 1 0 -15 0zM876.2 55.17 a7.5 7.5 0 1 0 15 0 a7.5 7.5 0 1 0 -15 0zM811.24 92.67 a7.5 7.5 0 1 0 15 0 a7.5 7.5 0 1 0 -15 0zM876.2 280.17 a7.5 7.5 0 1 0 15 0 a7.5 7.5 0 1 0 -15 0zM941.15 317.67 a7.5 7.5 0 1 0 15 0 a7.5 7.5 0 1 0 -15 0zM941.15 392.67 a7.5 7.5 0 1 0 15 0 a7.5 7.5 0 1 0 -15 0zM876.2 430.17 a7.5 7.5 0 1 0 15 0 a7.5 7.5 0 1 0 -15 0zM811.24 392.67 a7.5 7.5 0 1 0 15 0 a7.5 7.5 0 1 0 -15 0zM811.24 317.67 a7.5 7.5 0 1 0 15 0 a7.5 7.5 0 1 0 -15 0zM876.2 505.17 a7.5 7.5 0 1 0 15 0 a7.5 7.5 0 1 0 -15 0zM941.15 542.67 a7.5 7.5 0 1 0 15 0 a7.5 7.5 0 1 0 -15 0zM941.15 617.67 a7.5 7.5 0 1 0 15 0 a7.5 7.5 0 1 0 -15 0zM876.2 655.17 a7.5 7.5 0 1 0 15 0 a7.5 7.5 0 1 0 -15 0zM811.24 617.67 a7.5 7.5 0 1 0 15 0 a7.5 7.5 0 1 0 -15 0zM811.24 542.67 a7.5 7.5 0 1 0 15 0 a7.5 7.5 0 1 0 -15 0zM1006.11 280.17 a7.5 7.5 0 1 0 15 0 a7.5 7.5 0 1 0 -15 0zM1071.06 317.67 a7.5 7.5 0 1 0 15 0 a7.5 7.5 0 1 0 -15 0zM1071.06 392.67 a7.5 7.5 0 1 0 15 0 a7.5 7.5 0 1 0 -15 0zM1006.11 430.17 a7.5 7.5 0 1 0 15 0 a7.5 7.5 0 1 0 -15 0zM1006.11 505.17 a7.5 7.5 0 1 0 15 0 a7.5 7.5 0 1 0 -15 0zM1071.06 542.67 a7.5 7.5 0 1 0 15 0 a7.5 7.5 0 1 0 -15 0zM1071.06 617.67 a7.5 7.5 0 1 0 15 0 a7.5 7.5 0 1 0 -15 0zM1006.11 655.17 a7.5 7.5 0 1 0 15 0 a7.5 7.5 0 1 0 -15 0zM1071.06 167.67 a7.5 7.5 0 1 0 15 0 a7.5 7.5 0 1 0 -15 0zM1136.01 205.17 a7.5 7.5 0 1 0 15 0 a7.5 7.5 0 1 0 -15 0zM1136.01 280.17 a7.5 7.5 0 1 0 15 0 a7.5 7.5 0 1 0 -15 0zM1006.11 205.17 a7.5 7.5 0 1 0 15 0 a7.5 7.5 0 1 0 -15 0zM1136.01 430.17 a7.5 7.5 0 1 0 15 0 a7.5 7.5 0 1 0 -15 0zM1136.01 505.17 a7.5 7.5 0 1 0 15 0 a7.5 7.5 0 1 0 -15 0zM1200.97 542.67 a7.5 7.5 0 1 0 15 0 a7.5 7.5 0 1 0 -15 0zM1200.97 617.67 a7.5 7.5 0 1 0 15 0 a7.5 7.5 0 1 0 -15 0zM1136.01 655.17 a7.5 7.5 0 1 0 15 0 a7.5 7.5 0 1 0 -15 0zM1330.88 -57.33 a7.5 7.5 0 1 0 15 0 a7.5 7.5 0 1 0 -15 0zM1395.83 -19.83 a7.5 7.5 0 1 0 15 0 a7.5 7.5 0 1 0 -15 0zM1395.83 55.17 a7.5 7.5 0 1 0 15 0 a7.5 7.5 0 1 0 -15 0zM1330.88 92.67 a7.5 7.5 0 1 0 15 0 a7.5 7.5 0 1 0 -15 0zM1265.92 55.17 a7.5 7.5 0 1 0 15 0 a7.5 7.5 0 1 0 -15 0zM1265.92 -19.83 a7.5 7.5 0 1 0 15 0 a7.5 7.5 0 1 0 -15 0zM1395.83 280.17 a7.5 7.5 0 1 0 15 0 a7.5 7.5 0 1 0 -15 0zM1460.78 317.67 a7.5 7.5 0 1 0 15 0 a7.5 7.5 0 1 0 -15 0zM1460.78 392.67 a7.5 7.5 0 1 0 15 0 a7.5 7.5 0 1 0 -15 0zM1395.83 430.17 a7.5 7.5 0 1 0 15 0 a7.5 7.5 0 1 0 -15 0zM1330.88 392.67 a7.5 7.5 0 1 0 15 0 a7.5 7.5 0 1 0 -15 0zM1330.88 317.67 a7.5 7.5 0 1 0 15 0 a7.5 7.5 0 1 0 -15 0zM1395.83 505.17 a7.5 7.5 0 1 0 15 0 a7.5 7.5 0 1 0 -15 0zM1330.88 542.67 a7.5 7.5 0 1 0 15 0 a7.5 7.5 0 1 0 -15 0zM1265.92 505.17 a7.5 7.5 0 1 0 15 0 a7.5 7.5 0 1 0 -15 0zM1265.92 430.17 a7.5 7.5 0 1 0 15 0 a7.5 7.5 0 1 0 -15 0zM1460.78 542.67 a7.5 7.5 0 1 0 15 0 a7.5 7.5 0 1 0 -15 0zM1460.78 617.67 a7.5 7.5 0 1 0 15 0 a7.5 7.5 0 1 0 -15 0zM1395.83 655.17 a7.5 7.5 0 1 0 15 0 a7.5 7.5 0 1 0 -15 0zM1330.88 617.67 a7.5 7.5 0 1 0 15 0 a7.5 7.5 0 1 0 -15 0zM1460.78 -57.33 a7.5 7.5 0 1 0 15 0 a7.5 7.5 0 1 0 -15 0zM1525.74 -19.83 a7.5 7.5 0 1 0 15 0 a7.5 7.5 0 1 0 -15 0zM1525.74 55.17 a7.5 7.5 0 1 0 15 0 a7.5 7.5 0 1 0 -15 0zM1460.78 92.67 a7.5 7.5 0 1 0 15 0 a7.5 7.5 0 1 0 -15 0zM1460.78 167.67 a7.5 7.5 0 1 0 15 0 a7.5 7.5 0 1 0 -15 0zM1525.74 205.17 a7.5 7.5 0 1 0 15 0 a7.5 7.5 0 1 0 -15 0zM1525.74 280.17 a7.5 7.5 0 1 0 15 0 a7.5 7.5 0 1 0 -15 0zM1395.83 205.17 a7.5 7.5 0 1 0 15 0 a7.5 7.5 0 1 0 -15 0zM1525.74 430.17 a7.5 7.5 0 1 0 15 0 a7.5 7.5 0 1 0 -15 0zM1525.74 505.17 a7.5 7.5 0 1 0 15 0 a7.5 7.5 0 1 0 -15 0z" fill="rgba(7, 125, 243, 1)"></path><path d="M19.58 404.74L62.88 429.74L62.88 479.74L19.58 504.74L-23.72 479.74L-23.72 429.74zM106.19 -45.26L149.49 -20.26L149.49 29.74L106.19 54.74L62.88 29.74L62.88 -20.26zM106.19 104.74L149.49 129.74L149.49 179.74L106.19 204.74L62.88 179.74L62.88 129.74zM149.49 329.74L192.79 354.74L192.79 404.74L149.49 429.74L106.19 404.74L106.19 354.74zM149.49 479.74L192.79 504.74L192.79 554.74L149.49 579.74L106.19 554.74L106.19 504.74zM236.09 29.74L279.39 54.74L279.39 104.74L236.09 129.74L192.79 104.74L192.79 54.74zM192.79 104.74L236.09 129.74L236.09 179.74L192.79 204.74L149.49 179.74L149.49 129.74zM236.09 179.74L279.39 204.74L279.39 254.74L236.09 279.74L192.79 254.74L192.79 204.74zM279.39 -45.26L322.7 -20.26L322.7 29.74L279.39 54.74L236.09 29.74L236.09 -20.26zM322.7 29.74L366 54.74L366 104.74L322.7 129.74L279.39 104.74L279.39 54.74zM409.3 329.74L452.61 354.74L452.61 404.74L409.3 429.74L366 404.74L366 354.74zM495.91 29.74L539.21 54.74L539.21 104.74L495.91 129.74L452.61 104.74L452.61 54.74zM452.61 104.74L495.91 129.74L495.91 179.74L452.61 204.74L409.3 179.74L409.3 129.74zM495.91 329.74L539.21 354.74L539.21 404.74L495.91 429.74L452.61 404.74L452.61 354.74zM582.51 329.74L625.82 354.74L625.82 404.74L582.51 429.74L539.21 404.74L539.21 354.74zM669.12 29.74L712.42 54.74L712.42 104.74L669.12 129.74L625.82 104.74L625.82 54.74zM669.12 329.74L712.42 354.74L712.42 404.74L669.12 429.74L625.82 404.74L625.82 354.74zM712.42 404.74L755.72 429.74L755.72 479.74L712.42 504.74L669.12 479.74L669.12 429.74zM842.33 29.74L885.63 54.74L885.63 104.74L842.33 129.74L799.03 104.74L799.03 54.74zM842.33 179.74L885.63 204.74L885.63 254.74L842.33 279.74L799.03 254.74L799.03 204.74zM799.03 404.74L842.33 429.74L842.33 479.74L799.03 504.74L755.72 479.74L755.72 429.74zM928.93 29.74L972.24 54.74L972.24 104.74L928.93 129.74L885.63 104.74L885.63 54.74zM928.93 479.74L972.24 504.74L972.24 554.74L928.93 579.74L885.63 554.74L885.63 504.74zM972.24 404.74L1015.54 429.74L1015.54 479.74L972.24 504.74L928.93 479.74L928.93 429.74zM1015.54 479.74L1058.84 504.74L1058.84 554.74L1015.54 579.74L972.24 554.74L972.24 504.74zM1058.84 -45.26L1102.14 -20.26L1102.14 29.74L1058.84 54.74L1015.54 29.74L1015.54 -20.26zM1102.14 29.74L1145.44 54.74L1145.44 104.74L1102.14 129.74L1058.84 104.74L1058.84 54.74zM1188.75 29.74L1232.05 54.74L1232.05 104.74L1188.75 129.74L1145.44 104.74L1145.44 54.74zM1145.44 254.74L1188.75 279.74L1188.75 329.74L1145.44 354.74L1102.14 329.74L1102.14 279.74zM1188.75 329.74L1232.05 354.74L1232.05 404.74L1188.75 429.74L1145.44 404.74L1145.44 354.74zM1232.05 -45.26L1275.35 -20.26L1275.35 29.74L1232.05 54.74L1188.75 29.74L1188.75 -20.26zM1318.65 104.74L1361.96 129.74L1361.96 179.74L1318.65 204.74L1275.35 179.74L1275.35 129.74zM1318.65 254.74L1361.96 279.74L1361.96 329.74L1318.65 354.74L1275.35 329.74L1275.35 279.74zM1405.26 -45.26L1448.56 -20.26L1448.56 29.74L1405.26 54.74L1361.96 29.74L1361.96 -20.26zM1448.56 179.74L1491.87 204.74L1491.87 254.74L1448.56 279.74L1405.26 254.74L1405.26 204.74z" stroke="rgba(249, 249, 249, 0.93)" stroke-width="2"></path></g><defs><mask id="SvgjsMask1016"><rect width="1440" height="560" fill="#ffffff"></rect></mask></defs></svg>